<svg width="131" height="40" viewBox="0 0 131 40" fill="none" xmlns="http://www.w3.org/2000/svg">
<path d="M126.276 32.0828C125.53 32.0828 124.854 31.9963 124.248 31.8233C123.654 31.6395 123.124 31.3801 122.659 31.0449C122.194 30.6989 121.778 30.2935 121.41 29.8285L123.081 27.931C123.621 28.6554 124.162 29.142 124.702 29.3907C125.254 29.6393 125.821 29.7637 126.405 29.7637C126.697 29.7637 126.962 29.7258 127.2 29.6501C127.438 29.5745 127.622 29.4663 127.751 29.3258C127.881 29.1744 127.946 28.9906 127.946 28.7744C127.946 28.6122 127.903 28.4662 127.816 28.3365C127.741 28.2067 127.632 28.0932 127.492 27.9959C127.351 27.8986 127.184 27.8121 126.989 27.7364C126.795 27.6499 126.589 27.5796 126.373 27.5256C126.157 27.4607 125.935 27.4067 125.708 27.3634C125.081 27.2229 124.535 27.0499 124.07 26.8444C123.605 26.639 123.216 26.3903 122.902 26.0984C122.599 25.7957 122.372 25.4551 122.221 25.0767C122.07 24.6874 121.994 24.255 121.994 23.7792C121.994 23.2711 122.108 22.8062 122.335 22.3845C122.572 21.952 122.886 21.5844 123.275 21.2817C123.675 20.9681 124.135 20.7303 124.654 20.5681C125.173 20.3951 125.713 20.3086 126.276 20.3086C127.022 20.3086 127.659 20.3897 128.189 20.5519C128.73 20.7032 129.189 20.9249 129.568 21.2168C129.957 21.5087 130.287 21.8601 130.557 22.271L128.854 23.909C128.627 23.6279 128.378 23.3954 128.108 23.2116C127.849 23.0278 127.568 22.8872 127.265 22.7899C126.973 22.6926 126.67 22.644 126.357 22.644C126.032 22.644 125.751 22.6872 125.513 22.7737C125.286 22.8494 125.108 22.9629 124.978 23.1143C124.848 23.2549 124.783 23.4278 124.783 23.6333C124.783 23.8171 124.838 23.9739 124.946 24.1036C125.054 24.2333 125.2 24.3523 125.384 24.4604C125.567 24.5577 125.778 24.6442 126.016 24.7199C126.254 24.7848 126.503 24.8388 126.762 24.8821C127.357 25.001 127.892 25.1578 128.368 25.3524C128.854 25.547 129.27 25.7849 129.616 26.066C129.973 26.3471 130.244 26.6823 130.427 27.0715C130.622 27.4499 130.719 27.8932 130.719 28.4014C130.719 29.1906 130.525 29.861 130.135 30.4124C129.757 30.953 129.233 31.3692 128.562 31.6612C127.903 31.9423 127.141 32.0828 126.276 32.0828Z" fill="#2B10F9"/>
<path d="M112.059 31.9209V20.5684H119.973V22.92H114.735V29.5693H120.135V31.9209H112.059ZM113.356 27.2664V25.0283H119.243V27.2664H113.356Z" fill="#2B10F9"/>
<path d="M100.67 31.9209V20.5684H105.779C106.503 20.5684 107.157 20.7251 107.741 21.0387C108.336 21.3522 108.801 21.7847 109.136 22.3361C109.471 22.8767 109.638 23.493 109.638 24.185C109.638 24.8986 109.471 25.5419 109.136 26.1149C108.801 26.6771 108.341 27.1204 107.757 27.4448C107.173 27.7691 106.514 27.9313 105.779 27.9313H103.297V31.9209H100.67ZM106.962 31.9209L104.076 26.7961L106.898 26.3906L110.109 31.9209H106.962ZM103.297 25.823H105.535C105.816 25.823 106.06 25.7635 106.265 25.6446C106.481 25.5148 106.644 25.3364 106.752 25.1094C106.871 24.8823 106.93 24.6229 106.93 24.3309C106.93 24.039 106.865 23.7849 106.735 23.5687C106.606 23.3416 106.416 23.1686 106.168 23.0497C105.93 22.9308 105.638 22.8713 105.292 22.8713H103.297V25.823Z" fill="#2B10F9"/>
<path d="M93.0539 32.0182C92.1132 32.0182 91.2753 31.829 90.5401 31.4506C89.8049 31.0614 89.2264 30.5316 88.8048 29.8613C88.3939 29.1909 88.1885 28.4233 88.1885 27.5583V20.5684H90.978V27.4123C90.978 27.8232 91.0699 28.1962 91.2537 28.5314C91.4375 28.8557 91.6862 29.1152 91.9997 29.3098C92.3132 29.4936 92.6646 29.5855 93.0539 29.5855C93.4647 29.5855 93.8269 29.4936 94.1405 29.3098C94.4648 29.1152 94.7243 28.8557 94.9189 28.5314C95.1135 28.1962 95.2109 27.8232 95.2109 27.4123V20.5684H97.903V27.5583C97.903 28.4233 97.6922 29.1909 97.2705 29.8613C96.8597 30.5316 96.2866 31.0614 95.5514 31.4506C94.8162 31.829 93.9837 32.0182 93.0539 32.0182Z" fill="#2B10F9"/>
<path d="M80.1067 31.9209V23.0011H76.7334V20.5684H86.3182V23.0011H82.8638V31.9209H80.1067Z" fill="#2B10F9"/>
<path d="M64.5615 31.9209V20.5684H67.0267L72.9786 28.6773L72.4435 28.5963C72.3894 28.2395 72.3461 27.8989 72.3137 27.5745C72.2813 27.2502 72.2488 26.9312 72.2164 26.6177C72.1948 26.3041 72.1732 25.9852 72.1515 25.6608C72.1407 25.3364 72.1299 24.9851 72.1191 24.6066C72.1191 24.2282 72.1191 23.8174 72.1191 23.3741V20.5684H74.7951V31.9209H72.2975L66.086 23.5525L66.9131 23.666C66.9672 24.185 67.0104 24.6283 67.0429 24.9959C67.0861 25.3527 67.1186 25.6716 67.1402 25.9527C67.1726 26.2338 67.1942 26.4879 67.2051 26.715C67.2159 26.942 67.2213 27.1691 67.2213 27.3961C67.2321 27.6124 67.2375 27.8556 67.2375 28.1259V31.9209H64.5615Z" fill="#2B10F9"/>
<path d="M54.1064 31.9209V20.5684H62.0208V22.92H56.7824V29.5693H62.183V31.9209H54.1064ZM55.4039 27.2664V25.0283H61.291V27.2664H55.4039Z" fill="#2B10F9"/>
<path d="M45.7412 31.9209L41.2002 20.5684H44.0708L46.2602 26.3582C46.3899 26.6933 46.4981 26.9853 46.5846 27.2339C46.6819 27.4826 46.763 27.7151 46.8278 27.9313C46.9035 28.1476 46.9684 28.3692 47.0224 28.5963C47.0873 28.8125 47.1576 29.0612 47.2333 29.3423H46.7305C46.817 28.9747 46.9035 28.6503 46.99 28.3692C47.0765 28.0773 47.1738 27.7799 47.2819 27.4772C47.3901 27.1637 47.5252 26.7907 47.6874 26.3582L49.7957 20.5684H52.6176L48.0442 31.9209H45.7412Z" fill="#2B10F9"/>
<path d="M65.6279 16.5537V5.20117H70.6393C71.4177 5.20117 72.0773 5.3147 72.6179 5.54175C73.1585 5.75799 73.5639 6.07694 73.8342 6.49861C74.1153 6.90946 74.2559 7.40682 74.2559 7.99066C74.2559 8.63938 74.0937 9.18539 73.7693 9.62868C73.4558 10.072 72.9963 10.3693 72.3908 10.5207L72.3584 10.2125C72.8665 10.3206 73.3044 10.5099 73.672 10.7802C74.0505 11.0505 74.3424 11.3856 74.5478 11.7857C74.7532 12.1749 74.856 12.6182 74.856 13.1155C74.856 13.6886 74.7586 14.1913 74.564 14.6238C74.3694 15.0455 74.0883 15.4023 73.7207 15.6942C73.3531 15.9861 72.9206 16.2024 72.4233 16.3429C71.9367 16.4835 71.3961 16.5537 70.8015 16.5537H65.6279ZM68.2228 14.2508H70.7042C71.0069 14.2508 71.261 14.2021 71.4664 14.1048C71.6826 14.0075 71.8502 13.867 71.9692 13.6832C72.0881 13.4886 72.1476 13.2561 72.1476 12.9858C72.1476 12.7371 72.0827 12.5263 71.9529 12.3533C71.834 12.1803 71.661 12.0506 71.434 11.9641C71.2069 11.8668 70.9366 11.8181 70.6231 11.8181H68.2228V14.2508ZM68.2228 9.75842H70.2501C70.5312 9.75842 70.769 9.71517 70.9636 9.62868C71.1691 9.53137 71.3204 9.40162 71.4177 9.23945C71.5259 9.06645 71.5799 8.86103 71.5799 8.62316C71.5799 8.27718 71.461 8.00688 71.2231 7.81226C70.9853 7.60684 70.6285 7.50412 70.1527 7.50412H68.2228V9.75842Z" fill="#2B10F9"/>
<path d="M60.7702 16.7619L59.6473 15.5791L58.6849 14.6592L56.3269 12.0966C55.9098 11.6366 55.5569 11.2204 55.2682 10.8481C54.9794 10.4648 54.7495 10.1143 54.5784 9.79675C54.418 9.4682 54.3004 9.16156 54.2255 8.87682C54.1507 8.59209 54.1132 8.32925 54.1132 8.08832C54.1132 7.49694 54.263 6.97127 54.5624 6.5113C54.8725 6.04039 55.2949 5.67352 55.8296 5.41068C56.375 5.13689 57.0006 5 57.7064 5C58.2518 5 58.7597 5.09309 59.2303 5.27926C59.7008 5.45449 60.1072 5.70637 60.4494 6.03491C60.7916 6.36346 61.0322 6.74676 61.1712 7.18482L59.1501 8.41686C58.9683 7.96785 58.7704 7.66121 58.5565 7.49694C58.3427 7.33267 58.0914 7.25053 57.8026 7.25053C57.5674 7.25053 57.3695 7.28886 57.2091 7.36552C57.0487 7.44218 56.9257 7.55717 56.8402 7.71049C56.7546 7.85286 56.7119 8.03356 56.7119 8.25259C56.7119 8.46067 56.7921 8.71803 56.9525 9.02467C57.1236 9.32036 57.3374 9.63248 57.5941 9.96102C57.8508 10.2786 58.1128 10.5853 58.3801 10.8809C58.6474 11.1657 58.8881 11.4121 59.1019 11.6202L60.289 12.9508L61.3958 13.9857L63.9463 16.7619H60.7702ZM56.7119 16.9262C55.867 16.9262 55.1078 16.7619 54.4341 16.4333C53.771 16.1048 53.2417 15.6558 52.846 15.0863C52.461 14.5168 52.2686 13.8817 52.2686 13.1808C52.2686 12.3813 52.4931 11.664 52.9423 11.0288C53.4021 10.3827 54.0758 9.89531 54.9634 9.56677L56.5675 11.1602C55.9686 11.2916 55.5195 11.5107 55.2201 11.8173C54.9206 12.1239 54.7709 12.5127 54.7709 12.9836C54.7709 13.356 54.8565 13.679 55.0276 13.9528C55.1987 14.2266 55.45 14.4402 55.7815 14.5935C56.113 14.7359 56.5087 14.8071 56.9685 14.8071C57.3963 14.8071 57.7919 14.7194 58.1555 14.5442C58.5298 14.358 58.8613 14.1007 59.1501 13.7721C59.4495 13.4436 59.6901 13.0548 59.8719 12.6058C60.0537 12.1458 60.1767 11.6366 60.2408 11.0781H62.6309C62.5347 11.779 62.3689 12.4306 62.1336 13.0329C61.8984 13.6243 61.599 14.1609 61.2354 14.6428C60.8825 15.1246 60.4707 15.5353 60.0002 15.8748C59.5404 16.2143 59.0324 16.4772 58.4763 16.6633C57.931 16.8386 57.3428 16.9262 56.7119 16.9262Z" fill="#2B10F9"/>
<path d="M41.0889 16.6773V5.24805H46.0812C46.8568 5.24805 47.5138 5.36234 48.0523 5.59092C48.5909 5.80862 48.9948 6.12973 49.2641 6.55425C49.5441 6.96788 49.6842 7.46859 49.6842 8.05637C49.6842 8.70947 49.5226 9.25917 49.1995 9.70545C48.8871 10.1517 48.4293 10.4511 47.8262 10.6035L47.7938 10.2932C48.3001 10.4021 48.7363 10.5926 49.1025 10.8647C49.4795 11.1368 49.7703 11.4743 49.975 11.877C50.1796 12.2689 50.2819 12.7151 50.2819 13.2159C50.2819 13.7928 50.185 14.2989 49.9911 14.7343C49.7973 15.1588 49.5172 15.518 49.151 15.8119C48.7848 16.1058 48.3539 16.3235 47.8585 16.465C47.3738 16.6065 46.8352 16.6773 46.2428 16.6773H41.0889ZM43.6739 14.3588H46.1459C46.4475 14.3588 46.7006 14.3098 46.9052 14.2118C47.1206 14.1139 47.2876 13.9724 47.4061 13.7873C47.5246 13.5914 47.5838 13.3574 47.5838 13.0852C47.5838 12.8349 47.5192 12.6226 47.3899 12.4485C47.2714 12.2743 47.0991 12.1437 46.8729 12.0566C46.6467 11.9586 46.3774 11.9097 46.0651 11.9097H43.6739V14.3588ZM43.6739 9.83607H45.6935C45.9735 9.83607 46.2105 9.79253 46.4044 9.70545C46.609 9.60749 46.7598 9.47686 46.8568 9.31359C46.9645 9.13943 47.0183 8.93262 47.0183 8.69315C47.0183 8.34483 46.8998 8.0727 46.6629 7.87677C46.4259 7.66996 46.0705 7.56655 45.5965 7.56655H43.6739V9.83607Z" fill="#2B10F9"/>
<path d="M14.3076 8.26367L19.9627 2.60855C21.4033 1.16798 23.7389 1.16798 25.1795 2.60855L16.916 10.8721L14.3076 8.26367Z" fill="#36CE9F"/>
<path d="M14.3076 31.7363L19.9627 37.3915C21.4033 38.832 23.7389 38.832 25.1795 37.3914L16.916 29.1279L14.3076 31.7363Z" fill="#36CE9F"/>
<path fill-rule="evenodd" clip-rule="evenodd" d="M19.746 2.82147C21.3075 1.26468 23.8366 1.27255 25.3884 2.83904L33.0091 10.5319C33.7823 11.3125 33.7823 12.5728 33.0091 13.3534L26.4268 19.9981L33.0091 26.6428C33.7823 27.4233 33.7823 28.6837 33.0091 29.4642L25.3856 37.16C23.8338 38.7265 21.3047 38.7344 19.7432 37.1776L28.7816 28.0535L22.1993 21.4088C21.426 20.6283 21.426 19.3679 22.1993 18.5873L28.7816 11.9427L19.746 2.82147Z" fill="#36CE9F"/>
<path fill-rule="evenodd" clip-rule="evenodd" d="M9.98833 0.513672C10.5203 0.513671 11.0303 0.72426 11.4053 1.09876L20.4444 10.1262C21.2187 10.8995 21.2187 12.1481 20.4444 12.9214L11.0456 22.308L8.21171 19.5129L16.2111 11.5238L9.98833 5.30904L4.814 10.4767L9.46227 15.1191L6.62836 17.9143L0.580701 11.8743C-0.193567 11.101 -0.193567 9.85237 0.580701 9.07911L8.57137 1.09876C8.94636 0.724261 9.45636 0.513672 9.98833 0.513672Z" fill="#2B10F9"/>
<path fill-rule="evenodd" clip-rule="evenodd" d="M11.0371 39.7441C10.5051 39.7441 9.99509 39.5311 9.62011 39.1522L0.580963 30.0185C-0.193308 29.2362 -0.193306 27.9728 0.580963 27.1905L9.97977 17.6934L12.8137 20.5214L4.81426 28.6045L11.0371 34.8924L16.2114 29.6639L11.9882 25.3933L14.7879 22.5708L20.4447 28.2499C21.219 29.0323 21.219 30.2956 20.4447 31.0779L12.454 39.1522C12.079 39.5311 11.569 39.7441 11.0371 39.7441Z" fill="#2B10F9"/>
</svg>
