<?xml version="1.0" standalone="no"?>
<!DOCTYPE svg PUBLIC "-//W3C//DTD SVG 20010904//EN"
 "http://www.w3.org/TR/2001/REC-SVG-20010904/DTD/svg10.dtd">
<svg version="1.0" xmlns="http://www.w3.org/2000/svg"
 width="512.000000pt" height="512.000000pt" viewBox="0 0 512.000000 512.000000"
 preserveAspectRatio="xMidYMid meet">
<metadata>
Created by potrace 1.14, written by Peter Selinger 2001-2017
</metadata>
<g transform="translate(0.000000,512.000000) scale(0.100000,-0.100000)"
fill="#000000" stroke="none">
<path d="M0 2560 l0 -2560 2560 0 2560 0 0 2560 0 2560 -2560 0 -2560 0 0
-2560z m2113 1429 c12 -6 111 -99 219 -207 l198 -197 202 202 c120 119 214
204 229 208 14 3 39 0 56 -7 17 -7 195 -179 395 -383 396 -402 399 -406 378
-487 -10 -37 -46 -77 -268 -300 l-256 -258 251 -252 c270 -271 290 -298 277
-371 -6 -38 -39 -74 -377 -417 -203 -206 -383 -381 -399 -388 -15 -7 -41 -9
-56 -6 -17 4 -94 73 -205 183 l-177 176 -183 -182 c-100 -99 -192 -186 -204
-192 -30 -15 -99 -14 -131 3 -15 8 -146 135 -292 283 -428 432 -447 453 -455
497 -16 81 -12 85 612 709 l582 583 -229 229 -230 230 -190 -190 -190 -190
173 -173 172 -173 -103 -100 c-56 -54 -106 -99 -110 -99 -4 0 -114 107 -244
238 -250 252 -258 262 -243 340 6 32 51 82 318 351 172 172 326 322 342 332
34 21 104 25 138 8z"/>
<path d="M2847 3522 c-64 -64 -117 -122 -117 -127 0 -6 27 -37 60 -70 67 -66
87 -111 76 -172 -7 -34 -71 -102 -601 -633 l-594 -595 229 -235 229 -235 189
195 190 195 -156 157 -157 158 105 105 105 105 223 -222 c237 -237 252 -258
238 -333 -5 -24 -23 -54 -53 -87 l-47 -49 100 -100 99 -99 237 237 c131 131
238 242 238 248 0 6 -111 120 -246 255 -135 135 -252 257 -260 272 -8 15 -14
45 -14 68 0 23 6 53 14 68 8 15 125 137 260 272 135 135 246 249 246 255 0 6
-107 117 -238 248 l-237 237 -118 -118z"/>
</g>
</svg>
